<svg xmlns="http://www.w3.org/2000/svg" version="1.0" width="500.000000pt" height="500.000000pt" viewBox="0 0 500.000000 500.000000" preserveAspectRatio="xMidYMid meet">

<g transform="translate(0.000000,500.000000) scale(0.100000,-0.100000)" fill="#ffffff" stroke="none">
<path d="M1503 4516 c-46 -22 -83 -47 -83 -55 0 -7 -13 -39 -29 -71 l-29 -57 45 -88 c42 -84 47 -90 86 -101 23 -6 56 -17 72 -24 28 -12 38 -9 117 29 78 38 88 46 99 79 7 20 21 52 31 71 l19 34 -25 57 c-14 32 -26 64 -26 73 0 9 -23 24 -57 38 -32 12 -71 31 -88 41 -16 10 -34 17 -40 17 -5 -1 -47 -20 -92 -43z m155 -40 c60 -30 69 -40 90 -85 l23 -52 -22 -57 c-21 -54 -26 -60 -87 -90 l-64 -32 -44 20 c-23 11 -49 20 -58 20 -8 0 -28 29 -45 67 l-32 66 18 45 c17 41 83 102 111 102 5 0 15 7 22 15 16 19 10 21 88 -19z" fill="#ffffff"/>
<path d="M2500 4517 c-19 -13 -134 -81 -255 -152 -188 -109 -325 -191 -530 -315 -23 -14 -63 -38 -91 -54 -51 -30 -140 -84 -362 -220 -73 -44 -152 -92 -175 -104 -23 -13 -64 -38 -92 -56 -27 -18 -103 -63 -167 -102 l-118 -69 0 -932 0 -933 32 -14 c35 -14 218 -120 498 -288 96 -58 310 -185 475 -283 165 -97 324 -193 352 -211 29 -19 54 -34 57 -34 3 0 144 -84 340 -204 33 -20 65 -36 71 -36 13 0 91 45 425 247 146 88 333 199 415 248 83 49 195 116 250 150 55 34 170 103 255 152 85 49 205 119 265 155 61 36 134 77 162 92 l53 26 0 930 0 930 -45 22 -45 22 -22 -20 c-13 -11 -35 -28 -50 -37 -36 -22 -35 -32 2 -47 l30 -12 0 -857 -1 -856 -137 -82 c-75 -45 -200 -118 -277 -164 -77 -45 -178 -105 -225 -134 -105 -63 -343 -204 -470 -278 -52 -30 -140 -81 -195 -115 -55 -33 -164 -98 -243 -145 l-142 -86 -63 36 c-34 20 -127 75 -207 123 -80 48 -212 126 -295 175 -269 158 -319 188 -408 242 -49 29 -90 53 -92 53 -2 0 -84 48 -182 106 -98 59 -192 115 -210 125 -18 10 -49 29 -70 43 -21 13 -70 42 -110 65 l-72 41 -3 273 c-2 149 -1 535 2 856 l5 584 75 45 c41 24 102 61 135 82 33 21 125 77 205 125 80 48 195 118 255 155 61 37 178 107 260 155 83 48 189 112 237 141 48 30 89 54 91 54 2 0 67 37 143 81 76 45 153 90 169 99 17 10 50 29 75 44 25 14 50 26 56 26 6 0 116 -63 244 -140 127 -77 235 -140 239 -140 4 0 26 20 50 44 l43 43 -29 20 c-15 11 -84 54 -153 95 -69 42 -185 112 -259 157 -73 44 -134 81 -135 81 -1 0 -17 -11 -36 -23z" fill="#ffffff"/>
<path d="M4430 4375 c-35 -28 -78 -52 -120 -66 -85 -27 -185 -82 -345 -190 -149 -100 -176 -124 -169 -143 3 -8 -4 -35 -15 -61 l-20 -46 22 7 c35 11 355 226 442 297 43 37 81 64 83 62 18 -17 -146 -164 -294 -263 -50 -33 -97 -67 -105 -74 -21 -20 -100 -72 -131 -85 -19 -9 -25 -17 -21 -31 3 -13 -7 -31 -31 -54 -20 -19 -36 -37 -36 -40 0 -5 248 118 348 172 48 27 168 117 226 170 42 38 139 163 173 221 21 37 63 143 63 159 0 18 -15 11 -70 -35z" fill="#ffffff"/>
<path d="M1085 4285 c-32 -12 -62 -28 -66 -36 -4 -8 -13 -27 -20 -44 -8 -16 -27 -52 -43 -78 -16 -27 -25 -52 -20 -55 16 -12 49 -66 76 -124 29 -60 30 -61 124 -78 60 -12 63 -11 128 21 37 18 69 41 72 52 3 11 22 46 41 79 l34 59 -48 99 c-45 94 -50 100 -83 106 -19 3 -48 10 -64 15 -40 13 -62 10 -131 -16z m153 -48 c41 -11 45 -16 77 -84 l34 -73 -31 -62 c-28 -54 -38 -63 -85 -84 -29 -13 -58 -22 -65 -19 -7 2 -32 9 -55 15 -38 9 -44 16 -78 82 l-37 71 28 60 c25 51 36 63 84 88 30 15 62 26 70 23 8 -3 34 -11 58 -17z" fill="#ffffff"/>
<path d="M3234 4238 c-94 -86 -388 -432 -370 -436 18 -4 21 -34 6 -63 -46 -85 200 154 309 300 33 44 70 105 84 135 25 54 43 116 34 116 -3 0 -31 -24 -63 -52z" fill="#ffffff"/>
<path d="M2490 4251 c-61 -38 -321 -190 -390 -228 -30 -17 -104 -59 -165 -95 -60 -36 -139 -82 -175 -103 -36 -21 -121 -72 -190 -114 -206 -124 -420 -252 -538 -321 l-111 -65 -1 -541 c0 -549 1 -564 36 -564 6 0 16 8 20 18 5 9 11 248 14 530 l5 514 175 103 c96 56 247 146 335 199 88 53 167 100 175 105 8 4 94 55 190 113 96 58 254 150 350 205 96 55 208 119 248 143 l73 42 37 -25 c51 -34 303 -184 322 -192 15 -5 69 40 59 49 -2 2 -85 52 -184 111 -99 59 -194 116 -210 126 -30 18 -31 18 -75 -10z" fill="#ffffff"/>
<path d="M3325 4079 c-51 -39 -72 -56 -175 -148 -46 -42 -99 -89 -118 -106 -42 -37 -164 -177 -158 -182 9 -10 157 86 281 182 116 90 184 169 223 258 16 37 -1 36 -53 -4z" fill="#ffffff"/>
<path d="M4499 4092 c-13 -10 -67 -43 -119 -74 -288 -168 -400 -234 -448 -265 -84 -54 -252 -153 -260 -153 -4 0 -20 -12 -37 -26 -23 -19 -25 -24 -10 -20 11 3 40 10 65 15 208 46 614 254 741 381 45 46 109 134 109 152 0 13 -16 9 -41 -10z" fill="#ffffff"/>
<path d="M3640 3969 c-75 -64 -343 -241 -456 -300 -157 -82 -248 -135 -262 -152 -10 -12 -7 -13 25 -7 75 16 154 40 193 60 49 25 50 25 50 -5 0 -19 -5 -25 -21 -25 -36 0 -278 -94 -268 -104 5 -5 169 18 227 32 23 5 42 6 42 2 0 -5 -8 -11 -17 -13 -81 -20 -243 -74 -243 -80 0 -9 188 0 224 10 12 3 16 1 12 -6 -4 -6 -14 -11 -22 -11 -35 0 -194 -44 -186 -52 5 -5 51 -11 102 -13 51 -3 95 -6 97 -8 2 -3 -39 -10 -92 -17 -52 -8 -95 -16 -95 -19 0 -7 115 -31 152 -32 49 -1 -16 -18 -74 -18 -31 -1 -59 -5 -62 -9 -3 -5 18 -14 47 -22 85 -21 88 -29 12 -31 l-70 -1 53 -24 c28 -14 52 -29 52 -34 0 -5 -24 -7 -52 -4 l-53 6 35 -32 35 -32 -30 8 c-68 16 -85 14 -91 -14 -11 -51 -15 -62 -23 -62 -5 0 -21 44 -36 98 -43 152 -72 229 -111 299 -20 35 -38 63 -40 60 -2 -2 3 -24 11 -48 46 -129 75 -303 57 -335 -13 -22 -10 -28 -46 111 -14 56 -37 134 -51 175 -52 149 -51 131 -14 205 35 68 84 135 99 135 5 0 -2 -30 -16 -66 -26 -69 -25 -86 1 -64 14 12 24 31 54 103 13 34 15 124 1 132 -22 14 -51 -19 -172 -198 -58 -84 -62 -125 -22 -214 103 -233 120 -395 55 -526 -32 -67 -80 -127 -101 -127 -41 0 -109 30 -141 61 -56 56 -64 131 -23 244 54 153 63 183 73 258 13 90 1 189 -28 249 l-18 37 30 11 30 10 -23 25 c-13 14 -22 26 -19 28 2 2 17 11 32 20 36 23 28 33 -29 40 -63 7 -70 16 -45 65 31 62 29 72 -15 59 -25 -8 -37 -8 -42 0 -5 7 -33 5 -92 -8 -240 -54 -273 -67 -349 -136 -72 -63 -99 -123 -107 -229 -7 -87 -20 -133 -70 -242 -13 -29 -24 -54 -24 -56 0 -2 -18 -43 -40 -90 -22 -47 -40 -88 -40 -90 0 -3 -11 -29 -24 -58 -13 -29 -56 -127 -96 -218 -40 -91 -88 -198 -107 -239 -30 -64 -34 -80 -27 -109 14 -56 36 -62 81 -21 21 19 61 50 88 69 98 66 206 163 279 250 98 117 140 181 216 325 72 136 100 184 142 238 73 92 60 10 -27 -168 -35 -71 -70 -150 -78 -175 -31 -95 -32 -305 -1 -293 8 3 15 -8 20 -34 4 -21 24 -74 46 -117 92 -187 264 -335 541 -464 49 -23 61 -42 27 -42 -26 0 -169 55 -223 86 -54 30 -57 30 -57 -5 0 -42 -17 -81 -35 -81 -12 0 -13 9 -9 44 20 146 -166 232 -237 111 -17 -29 -27 -35 -55 -35 -26 0 -34 -4 -34 -18 0 -23 20 -41 88 -78 32 -18 51 -35 49 -44 -3 -19 -32 -17 -114 5 -62 17 -63 18 -63 52 0 18 -9 52 -21 74 -11 23 -19 42 -17 43 32 24 99 66 106 66 5 0 17 9 27 20 10 11 14 20 10 20 -4 0 0 9 10 20 18 20 17 20 -29 20 -41 0 -52 5 -80 35 -30 31 -39 35 -84 35 -43 0 -55 -5 -85 -33 -45 -42 -63 -104 -49 -167 6 -25 10 -46 9 -47 -2 -2 -152 -5 -174 -4 -36 2 19 64 81 93 21 9 24 14 14 25 -9 11 -9 16 2 23 21 13 3 25 -33 22 -25 -2 -38 4 -60 28 -53 56 -129 52 -179 -11 -25 -31 -29 -45 -29 -93 0 -32 4 -63 10 -70 14 -16 4 -26 -25 -26 -18 0 -24 7 -30 35 -7 39 -29 45 -76 21 -15 -8 -29 -12 -32 -8 -3 3 -6 29 -6 58 0 47 -2 52 -20 47 -18 -5 -20 -14 -20 -84 0 -44 -4 -79 -9 -79 -18 0 -74 98 -90 159 -4 13 -12 26 -19 29 -8 2 -12 -15 -12 -58 0 -62 0 -62 -23 -48 -12 8 -35 34 -51 57 -25 37 -30 41 -43 29 -19 -19 -2 -68 56 -163 24 -38 53 -99 66 -135 l22 -65 90 -46 c50 -25 142 -67 204 -94 125 -53 126 -53 327 -40 75 5 112 4 112 -2 0 -13 -76 -33 -127 -33 -81 0 -62 -17 49 -44 62 -15 130 -36 150 -46 36 -19 42 -19 120 -4 86 16 207 43 314 71 34 8 68 13 75 11 22 -7 -66 -46 -166 -74 -116 -31 -439 -94 -485 -94 l-35 1 25 13 c14 8 44 19 67 26 51 15 48 26 -10 35 -58 10 -175 41 -216 58 -25 11 -44 12 -75 5 -133 -32 -152 -34 -165 -21 -10 11 -8 14 6 19 10 3 39 15 66 27 l47 21 -52 16 c-146 46 -279 122 -358 204 -24 25 -47 46 -50 46 -3 0 -4 -16 -2 -35 3 -27 13 -43 40 -63 53 -40 102 -88 102 -101 0 -13 -61 16 -136 66 -47 31 -52 38 -57 79 -4 40 -37 94 -56 94 -3 0 -6 -43 -6 -95 l0 -95 49 -27 c83 -47 100 -57 151 -89 28 -18 127 -76 220 -129 94 -54 249 -145 345 -203 96 -58 189 -113 205 -122 17 -9 66 -39 110 -65 44 -26 94 -55 110 -65 40 -23 243 -143 331 -195 39 -24 80 -46 92 -49 16 -5 80 28 269 142 136 82 338 202 448 267 110 65 233 138 274 162 41 25 88 53 105 63 17 9 65 37 106 62 223 133 368 218 393 229 l27 12 -2 805 c-3 765 -4 805 -21 816 -15 9 -22 7 -38 -13 -18 -23 -19 -46 -19 -795 l0 -771 -111 -65 c-61 -36 -130 -76 -153 -89 -22 -13 -44 -28 -48 -35 -5 -8 -92 -12 -284 -14 -317 -3 -336 3 -162 54 120 35 128 39 128 61 0 12 -7 14 -30 10 -49 -10 -160 -20 -160 -15 0 14 30 76 42 85 15 13 87 53 93 53 3 0 5 -7 5 -15 0 -11 13 -15 53 -15 30 0 87 -8 128 -19 104 -26 159 -34 159 -24 0 5 -11 16 -24 23 -42 22 -41 41 1 23 20 -8 71 -17 112 -20 l76 -4 -26 23 c-14 13 -39 33 -55 45 l-29 21 75 -5 c56 -4 80 -1 94 10 18 13 13 17 -75 63 l-93 49 -85 120 c-47 66 -127 162 -178 212 -51 51 -93 94 -93 95 0 2 31 3 69 3 38 0 73 4 77 8 5 5 1 22 -8 38 l-17 29 58 0 c75 0 95 18 61 55 l-23 25 37 0 c68 0 99 35 56 62 -28 18 -25 28 8 28 44 0 72 11 72 29 0 23 -26 37 -101 54 -121 29 -164 36 -259 43 -85 5 -93 4 -80 -9 8 -9 33 -22 55 -30 129 -48 211 -80 218 -87 5 -4 -26 0 -70 10 -43 10 -116 24 -163 30 -47 6 -93 13 -102 16 -13 4 -16 1 -12 -9 6 -17 123 -75 201 -101 29 -10 55 -22 58 -27 8 -12 0 -11 -65 6 -55 15 -159 37 -234 50 -36 6 -38 5 -27 -9 8 -9 54 -39 103 -67 48 -29 91 -55 94 -60 2 -4 -21 1 -53 12 -69 24 -215 61 -220 56 -6 -6 49 -58 91 -85 21 -15 33 -28 27 -30 -9 -3 -150 18 -235 34 -17 4 -26 2 -22 -4 7 -12 133 -74 211 -104 49 -18 56 -23 35 -26 -14 -2 -56 1 -93 8 -38 7 -71 9 -74 6 -4 -3 0 -6 8 -6 28 0 211 -64 284 -99 41 -21 75 -34 75 -31 -1 3 -23 23 -51 45 -60 47 -49 58 19 19 60 -35 162 -138 198 -201 34 -60 70 -100 109 -121 53 -27 11 -23 -75 8 -46 16 -85 28 -88 25 -3 -2 -23 9 -45 25 -22 16 -42 28 -44 26 -2 -2 5 -19 16 -37 35 -58 23 -56 -39 6 -33 33 -60 56 -60 52 0 -4 9 -26 20 -47 24 -47 14 -51 -30 -13 l-32 27 -17 -21 c-24 -32 -201 -140 -320 -196 -106 -50 -171 -68 -171 -49 0 14 3 16 140 82 209 102 241 122 327 207 50 50 83 90 83 103 0 30 -13 25 -76 -30 -32 -28 -62 -49 -68 -47 -6 2 -12 31 -14 65 -2 46 -7 62 -17 62 -8 0 -18 -12 -21 -27 -8 -36 -46 -104 -55 -101 -4 2 -25 26 -47 53 -21 28 -54 59 -72 69 -36 21 -36 20 17 -58 18 -26 33 -53 33 -58 0 -12 -6 -8 -115 82 -44 37 -86 70 -93 74 -23 14 2 -23 58 -84 50 -55 59 -70 40 -70 -10 0 -100 70 -159 124 l-35 31 19 -30 c10 -16 24 -39 32 -50 33 -49 6 -33 -67 40 -84 84 -100 93 -50 30 76 -96 -24 -34 -206 128 -30 26 -57 47 -60 47 -9 0 30 -50 91 -120 32 -35 53 -66 46 -68 -30 -10 -167 121 -248 237 -20 28 -38 49 -40 47 -6 -6 24 -74 58 -129 45 -73 31 -77 -32 -9 -48 51 -111 157 -135 227 -16 45 -15 -16 0 -78 20 -78 20 -82 1 -63 -20 20 -48 89 -65 158 -13 56 -30 69 -30 25 -1 -18 -2 -19 -10 -7 -10 18 12 208 30 255 6 17 40 88 76 158 78 152 94 201 94 284 0 81 -13 117 -40 108 -20 -6 -21 -4 -14 44 8 63 -5 66 -29 7 -20 -47 -84 -136 -99 -136 -13 0 -28 39 -41 106 -10 49 -17 61 -41 73 -62 29 -124 -19 -133 -103 -6 -48 -20 -58 -43 -31 -18 22 -7 132 18 182 39 75 115 128 241 165 69 20 211 33 211 18 0 -4 -14 -20 -31 -35 -17 -14 -30 -27 -28 -28 2 -2 26 -9 54 -15 27 -7 52 -15 55 -18 5 -6 -24 -30 -44 -37 -7 -2 -1 -19 15 -43 88 -135 88 -246 3 -496 -53 -153 -57 -209 -19 -285 29 -57 70 -94 130 -113 39 -13 202 -15 239 -4 15 5 18 3 13 -10 -18 -45 113 15 212 99 163 138 256 310 291 540 4 28 17 115 29 194 12 79 24 148 27 153 3 5 52 40 107 77 163 109 211 142 230 158 30 28 20 -6 -18 -57 -41 -56 -141 -149 -203 -188 -23 -15 -44 -34 -47 -42 -2 -8 -13 -80 -25 -160 -38 -260 -67 -375 -125 -491 -60 -117 -163 -234 -307 -348 -38 -29 -68 -57 -68 -62 0 -13 127 37 175 68 60 40 163 141 205 203 81 119 117 221 150 425 18 110 29 184 41 262 l11 73 76 64 c167 139 232 232 232 334 0 61 -9 65 -60 21z m-1642 -537 c3 -16 -2 -22 -16 -22 -21 0 -36 25 -26 41 10 17 39 5 42 -19z m52 -127 c0 -7 -15 -28 -33 -46 -18 -19 -60 -70 -93 -114 -72 -98 -98 -123 -102 -102 -4 20 18 72 66 154 48 82 70 108 107 127 30 16 55 7 55 -19z m-168 -10 c3 -3 -16 -49 -43 -103 -27 -53 -78 -162 -115 -242 -89 -194 -258 -534 -286 -572 -13 -18 -24 -26 -26 -19 -4 11 11 50 63 166 13 28 32 70 43 95 45 101 65 148 89 200 52 115 141 318 174 397 32 78 36 83 65 83 17 0 33 -2 36 -5z m-58 -371 c-21 -38 -68 -130 -106 -204 -39 -74 -85 -160 -103 -190 -38 -63 -85 -112 -85 -89 0 8 4 19 9 25 5 5 56 99 112 209 56 110 111 214 122 230 25 37 79 96 84 91 2 -2 -13 -35 -33 -72z m150 -726 c24 -34 20 -73 -10 -97 -15 -12 -35 -21 -45 -21 -24 0 -24 -7 1 -61 33 -74 22 -169 -26 -211 -16 -14 -31 -15 -104 -8 -103 11 -160 20 -160 26 0 3 6 17 14 32 28 54 96 102 164 117 37 8 49 36 33 79 -21 53 -14 105 18 137 37 37 92 40 115 7z m-386 -15 c32 -27 37 -64 12 -96 -12 -15 -30 -27 -40 -27 -30 0 -31 -15 -5 -40 35 -33 47 -83 32 -128 -12 -36 -14 -37 -61 -35 -39 1 -167 36 -186 51 -11 9 46 43 96 58 30 8 54 21 54 27 0 6 -7 30 -16 54 -23 60 -12 108 29 133 40 25 59 25 85 3z m-371 -262 c43 -29 159 -86 236 -115 82 -31 200 -61 367 -94 132 -26 143 -27 495 -26 437 1 569 15 820 86 135 38 209 69 272 110 64 43 78 38 42 -14 -58 -80 -442 -200 -704 -218 -77 -6 -147 -13 -155 -16 -8 -3 -141 -5 -296 -5 -255 1 -295 3 -430 26 -325 56 -498 114 -656 218 -60 40 -94 74 -132 131 -42 62 -31 62 42 -2 37 -32 81 -68 99 -81z m1072 115 c24 -26 31 -81 17 -143 -7 -31 -7 -32 36 -38 46 -7 98 -38 85 -51 -10 -10 -188 -35 -204 -29 -19 7 -16 56 7 99 21 42 19 56 -8 56 -10 0 -28 7 -40 16 -27 18 -30 69 -5 96 24 27 84 24 112 -6z m928 -19 c-18 -27 -138 -101 -237 -145 -115 -52 -265 -97 -420 -127 -82 -16 -210 -20 -195 -6 12 10 82 28 142 36 24 3 62 11 85 19 24 7 63 19 88 26 155 44 282 93 405 155 77 39 142 70 144 68 2 -1 -3 -13 -12 -26z m-121 -376 c-11 -17 -97 -62 -144 -76 -72 -21 -305 -57 -343 -53 l-34 3 36 17 c20 9 61 21 90 27 247 50 300 62 339 75 56 17 63 18 56 7z m-382 -22 c-4 -6 -36 -25 -73 -41 -36 -17 -78 -39 -92 -49 -50 -35 -328 -120 -414 -126 -44 -3 -77 -3 -74 1 4 4 40 15 80 25 133 33 223 64 319 109 52 25 120 55 150 68 59 25 116 32 104 13z m521 -13 c-26 -18 -110 -46 -138 -46 -19 0 -18 3 12 22 31 20 79 34 126 37 19 1 19 1 0 -13z m-1015 -36 c0 -21 -122 -32 -182 -17 -59 15 -26 27 77 27 62 0 105 -4 105 -10z m1355 -115 l-40 -35 -232 0 c-128 0 -233 3 -233 6 0 3 12 18 28 34 l27 29 245 0 245 0 -40 -34z m-832 -6 c-18 -18 -112 -30 -186 -23 -76 7 -79 15 -9 25 85 12 207 10 195 -2z m625 -97 c21 -2 19 -5 -22 -37 l-46 -35 -305 0 -305 0 0 -30 0 -30 230 0 c127 0 230 -3 229 -7 0 -5 -20 -22 -43 -39 l-43 -32 -264 -1 c-145 0 -272 -1 -281 -1 -12 0 -18 -8 -18 -25 l0 -25 213 0 c118 0 217 -3 220 -6 4 -4 -14 -20 -39 -35 l-45 -29 -310 0 -310 0 -45 26 c-25 15 -43 29 -40 32 3 2 74 7 158 11 149 6 153 7 156 29 4 27 23 25 -240 22 l-207 -2 -28 26 c-15 15 -36 29 -45 32 -60 19 12 24 317 24 l335 0 0 30 0 30 -404 0 -405 0 -48 33 -48 32 45 5 c44 5 1593 7 1638 2z m-650 -407 c1 -1 -16 -14 -38 -29 -36 -24 -48 -26 -136 -26 -77 0 -101 4 -122 18 -15 10 -36 22 -47 26 l-20 8 20 9 c16 7 334 1 343 -6z" fill="#ffffff"/>
<path d="M1920 2159 c0 -25 33 -22 38 4 2 12 -3 17 -17 17 -15 0 -21 -6 -21 -21z" fill="#ffffff"/>
<path d="M1545 2151 c-8 -15 3 -31 21 -31 9 0 14 7 12 17 -4 20 -24 28 -33 14z" fill="#ffffff"/>
<path d="M2202 2003 c4 -21 33 -25 33 -3 0 8 -8 16 -18 18 -14 3 -18 -1 -15 -15z" fill="#ffffff"/>
<path d="M3340 3924 c-57 -48 -210 -162 -274 -204 -61 -40 -179 -140 -173 -147 3 -2 29 6 58 17 137 54 308 159 370 227 34 37 96 149 88 157 -2 2 -33 -21 -69 -50z" fill="#ffffff"/>
<path d="M3441 3920 c-5 -16 -7 -30 -3 -30 16 1 53 40 47 50 -12 19 -33 10 -44 -20z" fill="#ffffff"/>
<path d="M796 3860 c-32 -28 -34 -33 -24 -61 21 -61 91 -79 127 -33 36 46 37 65 2 96 -40 36 -62 35 -105 -2z m89 -35 c0 -10 -9 -24 -21 -31 -18 -13 -23 -11 -43 10 l-23 24 22 22 c19 19 24 20 43 7 12 -8 22 -22 22 -32z" fill="#ffffff"/>
<path d="M4435 3822 c-221 -86 -343 -136 -410 -167 -105 -49 -191 -88 -240 -109 -157 -67 -209 -92 -212 -103 -3 -8 7 -9 34 -3 21 5 65 14 98 20 33 7 121 30 195 51 290 84 474 175 553 271 52 64 51 67 -18 40z" fill="#ffffff"/>
<path d="M4200 3564 c-41 -13 -160 -49 -265 -80 -221 -64 -384 -113 -405 -123 -28 -12 205 -12 295 -1 185 24 302 69 397 150 38 32 74 80 61 80 -5 -1 -42 -12 -83 -26z" fill="#ffffff"/>
<path d="M1455 3350 c-16 -52 54 -85 77 -36 16 37 4 56 -36 56 -26 0 -36 -5 -41 -20z" fill="#ffffff"/>
<path d="M3895 3340 c-109 -18 -223 -30 -281 -30 -55 0 -108 -19 -93 -34 3 -3 34 -13 70 -22 50 -13 96 -16 214 -12 91 3 159 9 173 17 21 11 62 66 62 84 0 9 -79 7 -145 -3z" fill="#ffffff"/>
<path d="M1167 3273 c-21 -3 -33 -16 -51 -51 -14 -26 -31 -56 -39 -67 -13 -17 -13 -22 8 -50 12 -16 32 -49 44 -72 l21 -43 85 0 c61 0 85 4 85 12 0 7 16 39 37 72 l36 59 -38 74 -38 73 -61 -1 c-34 -1 -73 -4 -89 -6z m149 -84 l25 -51 -26 -54 -26 -54 -54 0 -54 0 -31 55 -31 55 20 29 c12 16 21 33 21 38 0 21 28 33 77 33 l53 0 26 -51z" fill="#ffffff"/>
<path d="M3580 3205 c-8 -2 -32 -6 -53 -10 -44 -7 -45 -25 -1 -37 57 -16 338 -37 384 -28 64 12 80 20 80 39 0 38 -18 41 -210 40 -102 -1 -192 -3 -200 -4z" fill="#ffffff"/>
<path d="M3553 3103 c-46 -2 -83 -8 -83 -12 0 -14 102 -42 191 -52 135 -16 273 -21 288 -11 16 12 6 49 -17 61 -20 10 -263 19 -379 14z" fill="#ffffff"/>
<path d="M3450 3008 c0 -14 35 -26 165 -56 176 -41 267 -50 300 -28 38 25 19 52 -47 65 -64 13 -418 29 -418 19z" fill="#ffffff"/>
<path d="M1202 2889 c-23 -29 -23 -29 -6 -69 16 -35 22 -40 51 -40 26 0 37 7 57 37 22 31 23 39 12 52 -7 9 -16 24 -19 34 -11 29 -68 21 -95 -14z" fill="#ffffff"/>
<path d="M3446 2911 c10 -10 196 -68 308 -96 56 -14 76 -15 107 -6 45 14 52 42 17 65 -46 29 -461 65 -432 37z" fill="#ffffff"/>
<path d="M3426 2822 c12 -10 62 -31 110 -46 49 -15 117 -36 151 -47 89 -27 173 -25 173 5 0 7 -11 22 -23 34 -27 25 -186 56 -344 67 -87 6 -88 6 -67 -13z" fill="#ffffff"/>
<path d="M3802 2364 c-27 -19 -28 -28 -2 -54 16 -16 25 -18 39 -11 28 15 34 41 15 62 -21 23 -24 23 -52 3z" fill="#ffffff"/>
<path d="M2570 2360 c0 -9 59 -35 65 -28 2 2 -11 11 -30 20 -19 8 -35 12 -35 8z" fill="#ffffff"/>
<path d="M880 2189 c0 -9 9 -24 20 -34 26 -23 26 -8 0 25 -14 18 -20 21 -20 9z" fill="#ffffff"/>
<path d="M920 2003 c0 -32 5 -42 29 -56 40 -23 44 -22 36 16 -8 36 -20 54 -47 68 -16 9 -18 5 -18 -28z" fill="#ffffff"/>
<path d="M4174 1364 c-17 -13 -48 -33 -69 -43 -38 -18 -38 -19 -42 -87 -5 -100 -1 -110 65 -144 31 -17 64 -35 73 -41 12 -9 29 -1 87 41 l72 52 0 82 0 82 -60 29 c-34 16 -66 35 -72 42 -14 17 -18 16 -54 -13z m109 -82 c24 -12 27 -19 27 -65 0 -51 -1 -53 -47 -83 l-47 -30 -53 30 -53 30 1 51 c0 48 2 51 47 81 44 29 48 30 72 16 14 -9 37 -22 53 -30z" fill="#ffffff"/>
<path d="M774 1353 c-21 -4 -74 -86 -74 -114 0 -8 10 -34 23 -59 l22 -45 73 -3 c44 -2 72 1 72 7 0 6 14 26 31 45 l31 36 -28 56 c-27 56 -48 71 -104 79 -14 1 -35 1 -46 -2z m90 -59 c26 -25 31 -64 13 -93 -13 -21 -23 -26 -56 -25 -22 0 -47 6 -55 14 -21 16 -20 64 0 95 19 29 73 34 98 9z" fill="#ffffff"/>
<path d="M1163 1209 c-5 -5 -35 -13 -66 -16 l-55 -6 -38 -76 c-20 -42 -50 -95 -66 -119 l-29 -42 19 -28 c18 -25 72 -136 85 -173 7 -20 73 -29 215 -29 89 0 103 2 108 18 9 28 27 63 68 135 l39 69 -20 26 c-20 28 -56 101 -67 138 -9 28 -33 47 -81 63 -22 8 -52 22 -67 32 -31 22 -31 22 -45 8z m133 -111 c6 -4 19 -30 29 -56 10 -26 26 -58 35 -71 17 -24 16 -27 -23 -105 -22 -45 -45 -84 -51 -88 -14 -9 -127 -9 -181 0 -38 7 -42 11 -83 89 l-42 82 42 82 c41 78 45 82 98 103 l55 22 55 -25 c30 -13 60 -28 66 -33z" fill="#ffffff"/>
<path d="M3790 1160 c-20 -16 -57 -39 -84 -53 -42 -21 -52 -33 -85 -101 l-37 -77 33 -66 c18 -36 33 -71 33 -78 0 -6 18 -17 39 -24 22 -6 62 -27 91 -46 l51 -34 54 38 c30 21 68 44 85 51 24 10 39 29 66 86 19 41 39 74 45 74 5 0 -3 19 -18 43 -16 23 -40 63 -53 89 -19 36 -32 49 -55 54 -37 7 -115 51 -115 64 0 16 -13 11 -50 -20z m102 -83 c55 -29 66 -40 89 -88 23 -47 25 -57 14 -79 -7 -14 -15 -36 -19 -50 -4 -18 -26 -36 -73 -63 l-67 -38 -64 28 c-60 26 -66 32 -92 87 -15 33 -25 67 -22 75 18 49 45 81 103 118 35 24 65 43 66 43 1 0 30 -15 65 -33z" fill="#ffffff"/>
<path d="M1610 920 c-8 -5 -39 -10 -67 -10 l-53 0 -39 -77 c-22 -43 -49 -91 -60 -107 l-19 -29 30 -54 c17 -30 36 -72 43 -95 l12 -42 83 -19 82 -20 67 22 c36 12 72 21 79 21 6 0 12 8 12 18 1 25 38 103 61 128 l20 21 -25 37 c-14 20 -35 63 -47 96 -20 50 -28 59 -53 64 -17 4 -48 18 -68 31 -43 29 -39 28 -58 15z m63 -76 c48 -24 55 -32 85 -96 29 -64 30 -72 16 -92 -8 -11 -19 -37 -24 -57 -9 -33 -15 -37 -69 -54 -53 -16 -65 -16 -118 -3 l-58 14 -34 69 -33 70 38 74 c21 40 43 74 49 76 5 1 24 7 40 13 45 15 50 14 108 -14z" fill="#ffffff"/>
<path d="M3381 861 c-27 -20 -64 -45 -83 -55 l-34 -18 4 -72 c4 -104 6 -108 72 -145 33 -19 68 -42 79 -52 18 -17 20 -17 33 -2 7 9 38 34 68 56 90 66 110 101 87 149 -8 18 -23 51 -32 73 -13 34 -26 45 -80 71 l-65 32 -49 -37z m89 -51 c14 -11 31 -20 38 -20 17 0 42 -61 42 -102 -1 -29 -8 -38 -56 -70 -55 -38 -55 -38 -87 -22 -78 40 -87 51 -87 108 0 53 0 53 53 89 61 42 64 43 97 17z" fill="#ffffff"/>
</g>
</svg>